<svg width="533" height="87" viewBox="0 0 533 87" fill="none" xmlns="http://www.w3.org/2000/svg">
<path d="M40.6192 54.7043H46.3108V84.5458H41.414V62.7563V60.4973L39.7417 62.016L25.1514 75.2661H24.403L1.44713 54.7043H8.93862L24.1226 68.2787L24.7895 68.875L25.456 68.2783L40.6192 54.7043Z" stroke="white" stroke-width="2"/>
<path d="M93.7983 62.4379V76.8122C93.7983 79.5035 93.1649 81.4183 92.101 82.6486C91.0576 83.8552 89.4765 84.5458 87.2514 84.5458H62.3246C60.0883 84.5458 58.5023 83.8544 57.457 82.6479C56.3913 81.4178 55.7578 79.5035 55.7578 76.8122V62.4379C55.7578 59.7467 56.3913 57.8323 57.457 56.6023C58.5023 55.3958 60.0883 54.7043 62.3246 54.7043H87.2514C89.4765 54.7043 91.0576 55.395 92.101 56.6015C93.1649 57.8319 93.7983 59.7467 93.7983 62.4379ZM63.901 79.3815H85.674C86.1684 79.3815 86.6422 79.3615 87.0557 79.2687C87.4905 79.1712 87.9294 78.9776 88.27 78.5814C88.5963 78.2018 88.7387 77.7435 88.811 77.3076C88.8832 76.8728 88.9009 76.3598 88.9009 75.7888V63.4614C88.9009 62.8903 88.8832 62.3774 88.811 61.9426C88.7387 61.5067 88.5963 61.0483 88.27 60.6688C87.9294 60.2726 87.4905 60.079 87.0557 59.9814C86.6422 59.8886 86.1684 59.8687 85.674 59.8687H63.901C63.402 59.8687 62.9253 59.8887 62.5099 59.981C62.074 60.078 61.6332 60.2704 61.2905 60.6659C60.9614 61.0457 60.8179 61.5049 60.745 61.9418C60.6723 62.3771 60.6546 62.8905 60.6546 63.4614V75.7888C60.6546 76.3597 60.6723 76.8731 60.745 77.3084C60.8179 77.7452 60.9614 78.2045 61.2905 78.5843C61.6332 78.9798 62.074 79.1722 62.5099 79.2692C62.9253 79.3615 63.402 79.3815 63.901 79.3815Z" stroke="white" stroke-width="2"/>
<path d="M115.592 59.8687H99.5273V54.7043H138.553V59.8687H122.489H121.489V60.8687V84.5458H116.592V60.8687V59.8687H115.592Z" stroke="white" stroke-width="2"/>
<path d="M149.428 54.7043V84.5458H144.531V54.7043H149.428Z" stroke="white" stroke-width="2"/>
<path d="M196.898 62.4379V76.8122C196.898 79.5035 196.264 81.4183 195.2 82.6486C194.157 83.8552 192.576 84.5458 190.351 84.5458H165.422C163.186 84.5458 161.6 83.8544 160.555 82.6479C159.489 81.4178 158.855 79.5035 158.855 76.8122V62.4379C158.855 59.7467 159.489 57.8323 160.555 56.6023C161.6 55.3958 163.186 54.7043 165.422 54.7043H190.349C192.574 54.7043 194.156 55.395 195.2 56.6016C196.264 57.832 196.898 59.7468 196.898 62.4379ZM166.999 79.3815H188.772C189.266 79.3815 189.74 79.3615 190.153 79.2687C190.588 79.1712 191.027 78.9775 191.367 78.5814C191.694 78.2018 191.836 77.7435 191.908 77.3076C191.981 76.8728 191.998 76.3598 191.998 75.7888V63.4614C191.998 62.8903 191.981 62.3774 191.908 61.9426C191.836 61.5067 191.694 61.0484 191.367 60.6688C191.027 60.2726 190.588 60.079 190.153 59.9814C189.74 59.8886 189.266 59.8687 188.772 59.8687H166.999C166.5 59.8687 166.023 59.8887 165.608 59.981C165.172 60.078 164.731 60.2704 164.388 60.6659C164.059 61.0457 163.916 61.5049 163.843 61.9418C163.77 62.3771 163.752 62.8905 163.752 63.4614V75.7884C163.752 75.7885 163.752 75.7886 163.752 75.7888C163.752 76.3596 163.77 76.8729 163.842 77.3083C163.915 77.7453 164.059 78.2046 164.388 78.5844C164.731 78.9799 165.172 79.1723 165.608 79.2692C166.023 79.3615 166.5 79.3815 166.999 79.3815Z" stroke="white" stroke-width="2"/>
<path d="M212.825 63.736L211.217 62.5069V64.5304V84.5464H206.32V54.25H208.434L236.247 75.2006L237.848 76.4071V74.4018V54.7049H242.745V85.0012H240.635L212.825 63.736Z" stroke="white" stroke-width="2"/>
<path d="M295.58 54.7043L295.58 59.8687H271.457C270.962 59.8687 270.489 59.8888 270.076 59.98C269.643 60.0754 269.205 60.264 268.861 60.6515C268.529 61.0261 268.381 61.4805 268.305 61.9154C268.229 62.3473 268.21 62.8545 268.21 63.4161C268.21 63.9781 268.229 64.486 268.305 64.9194C268.38 65.3554 268.528 65.81 268.856 66.1862C269.197 66.5765 269.634 66.7706 270.069 66.8698C270.485 66.9644 270.96 66.9861 271.457 66.9861H290.61C292.835 66.9861 294.417 67.6768 295.46 68.8811C296.524 70.1088 297.157 72.0179 297.157 74.6968V76.8122C297.157 79.5035 296.524 81.4183 295.46 82.6486C294.416 83.8552 292.835 84.5458 290.61 84.5458H263.195V79.3815H289.034C289.528 79.3815 290.002 79.3615 290.415 79.2687C290.85 79.1712 291.289 78.9775 291.629 78.5814C291.956 78.2018 292.098 77.7435 292.17 77.3075C292.243 76.8728 292.26 76.3598 292.26 75.7888V75.7186C292.26 75.1475 292.243 74.6346 292.17 74.1998C292.098 73.7638 291.956 73.3055 291.629 72.926C291.289 72.5298 290.85 72.3362 290.415 72.2386C290.002 72.1458 289.528 72.1258 289.034 72.1258H269.88C267.655 72.1258 266.068 71.4349 265.019 70.2293C263.951 69.0012 263.314 67.0923 263.314 64.415V62.4379C263.314 59.7484 263.951 57.8337 265.02 56.603C266.068 55.3952 267.655 54.7043 269.88 54.7043H295.58Z" stroke="white" stroke-width="2"/>
<path d="M318.49 59.8687H302.426V54.7043H341.452V59.8687H325.387H324.387V60.8687V84.5458H319.49V60.8687V59.8687H318.49Z" stroke="white" stroke-width="2"/>
<path d="M347.43 76.8122V54.7043H352.327V75.7888C352.327 76.3597 352.344 76.8731 352.417 77.3084C352.49 77.7452 352.633 78.2045 352.962 78.5843C353.305 78.9798 353.746 79.1722 354.182 79.2692C354.597 79.3615 355.074 79.3815 355.573 79.3815H376.303C376.802 79.3815 377.278 79.3615 377.694 79.2692C378.13 79.1722 378.57 78.9798 378.913 78.5844C379.242 78.2046 379.386 77.7454 379.459 77.3085C379.532 76.8731 379.549 76.3597 379.549 75.7888V54.7043H384.446V76.8122C384.446 79.5035 383.812 81.4183 382.748 82.6486C381.705 83.8552 380.124 84.5458 377.899 84.5458H353.997C351.771 84.5458 350.184 83.855 349.136 82.6472C348.067 81.4164 347.43 79.5018 347.43 76.8122Z" stroke="white" stroke-width="2"/>
<path d="M427.409 62.4379V76.8122C427.409 79.5035 426.776 81.4183 425.712 82.6486C424.669 83.8552 423.088 84.5458 420.863 84.5458H393.191V79.3815H419.266C419.765 79.3815 420.242 79.3615 420.657 79.2692C421.093 79.1722 421.534 78.9798 421.877 78.5843C422.206 78.2045 422.349 77.7452 422.422 77.3084C422.495 76.8731 422.513 76.3597 422.513 75.7888V63.4614C422.513 62.8905 422.495 62.3771 422.422 61.9418C422.349 61.5049 422.206 61.0457 421.877 60.6659C421.534 60.2704 421.093 60.078 420.657 59.981C420.242 59.8887 419.765 59.8687 419.266 59.8687H393.191V54.7043H420.862C423.087 54.7043 424.669 55.395 425.712 56.6016C426.776 57.8319 427.409 59.7467 427.409 62.4379Z" stroke="white" stroke-width="2"/>
<path d="M441.733 54.7043V84.5458H436.836V54.7043H441.733Z" stroke="white" stroke-width="2"/>
<path d="M489.201 62.4379V76.8122C489.201 79.5035 488.568 81.4183 487.504 82.6486C486.46 83.8552 484.879 84.5458 482.654 84.5458H457.727C455.491 84.5458 453.905 83.8544 452.859 82.6479C451.794 81.4178 451.16 79.5035 451.16 76.8122V62.4379C451.16 59.7467 451.794 57.8323 452.859 56.6023C453.905 55.3958 455.491 54.7043 457.727 54.7043H482.654C484.879 54.7043 486.46 55.395 487.504 56.6016C488.568 57.8319 489.201 59.7467 489.201 62.4379ZM459.303 79.3815H481.076C481.571 79.3815 482.045 79.3615 482.458 79.2687C482.893 79.1712 483.332 78.9776 483.672 78.5814C483.999 78.2018 484.141 77.7435 484.213 77.3076C484.286 76.8728 484.303 76.3598 484.303 75.7888V63.4614C484.303 62.8903 484.286 62.3774 484.213 61.9426C484.141 61.5067 483.999 61.0483 483.672 60.6688C483.332 60.2726 482.893 60.079 482.458 59.9814C482.045 59.8886 481.571 59.8687 481.076 59.8687H459.303C458.804 59.8687 458.328 59.8887 457.912 59.981C457.476 60.078 457.036 60.2704 456.693 60.6659C456.364 61.0457 456.22 61.5049 456.147 61.9418C456.075 62.3771 456.057 62.8905 456.057 63.4614V75.7888C456.057 76.3597 456.075 76.8731 456.147 77.3084C456.22 77.7452 456.364 78.2045 456.693 78.5843C457.036 78.9798 457.476 79.1722 457.912 79.2692C458.328 79.3615 458.804 79.3815 459.303 79.3815Z" stroke="white" stroke-width="2"/>
<path d="M530.423 54.7043L530.424 59.8687H506.3C505.805 59.8687 505.332 59.8888 504.919 59.98C504.487 60.0754 504.048 60.264 503.705 60.6515C503.373 61.0261 503.224 61.4805 503.148 61.9154C503.073 62.3473 503.054 62.8545 503.054 63.4161C503.054 63.9781 503.073 64.486 503.148 64.9194C503.224 65.3554 503.371 65.81 503.7 66.1862C504.041 66.5765 504.477 66.7706 504.913 66.8698C505.328 66.9644 505.803 66.9861 506.3 66.9861H525.454C527.679 66.9861 529.261 67.6768 530.304 68.8811C531.368 70.1089 532.001 72.0179 532.001 74.6968V76.8122C532.001 79.5035 531.367 81.4183 530.303 82.6486C529.26 83.8552 527.679 84.5458 525.454 84.5458H498.039V79.3815H523.877C524.371 79.3815 524.845 79.3615 525.259 79.2687C525.694 79.1712 526.132 78.9776 526.473 78.5814C526.799 78.2018 526.942 77.7435 527.014 77.3076C527.086 76.8728 527.104 76.3598 527.104 75.7888V75.7186C527.104 75.1475 527.086 74.6345 527.014 74.1997C526.942 73.7638 526.799 73.3055 526.473 72.9259C526.132 72.5298 525.694 72.3361 525.259 72.2386C524.845 72.1458 524.371 72.1258 523.877 72.1258H504.724C502.498 72.1258 500.911 71.4349 499.862 70.2293C498.794 69.0012 498.157 67.0923 498.157 64.415V62.4379C498.157 59.7484 498.795 57.8337 499.863 56.603C500.912 55.3952 502.498 54.7043 504.724 54.7043H530.423Z" stroke="white" stroke-width="2"/>
<path d="M47.2087 1L47.2096 31.7512H42.1807V9.31067V7.03735L40.505 8.57353L25.6332 22.2066H24.8614L1.40678 1H9.11277L24.5894 14.9665L25.2598 15.5715L25.9298 14.9661L41.3852 1H47.2087Z" stroke="white" stroke-width="2"/>
<path d="M95.6049 8.98322V23.768C95.6049 26.5422 94.9578 28.5208 93.8677 29.7934C92.7992 31.0408 91.1831 31.7512 88.9147 31.7512H63.515C61.2351 31.7512 59.6142 31.04 58.5437 29.7927C57.4517 28.5204 56.8047 26.5422 56.8047 23.768V8.98322C56.8047 6.20899 57.4517 4.23085 58.5437 2.95851C59.6142 1.71129 61.2351 1 63.515 1H88.9147C91.1828 1 92.7989 1.71047 93.8674 2.95782C94.9577 4.23045 95.6049 6.20911 95.6049 8.98322ZM65.1213 26.3821H87.3075C87.811 26.3821 88.2929 26.3616 88.713 26.2664C89.1552 26.1662 89.5983 25.968 89.9411 25.5655C90.2688 25.1807 90.4121 24.716 90.4852 24.2713C90.5582 23.8273 90.5763 23.3024 90.5763 22.7153V10.0363C90.5763 9.44923 90.5582 8.92427 90.4852 8.48028C90.4121 8.03564 90.2688 7.57087 89.9411 7.18605C89.5983 6.7836 89.1552 6.58538 88.713 6.4852C88.2929 6.39002 87.811 6.36947 87.3075 6.36947H65.1213C64.6128 6.36947 64.128 6.39003 63.7059 6.48476C63.2625 6.58428 62.8173 6.78125 62.4724 7.18308C62.1418 7.56814 61.9973 8.03386 61.9236 8.47943C61.8501 8.92394 61.8321 9.44938 61.8321 10.0363V22.7153C61.8321 23.3022 61.8501 23.8277 61.9236 24.2722C61.9973 24.7177 62.1418 25.1835 62.4724 25.5685C62.8173 25.9704 63.2625 26.1673 63.7059 26.2668C64.128 26.3616 64.6128 26.3821 65.1213 26.3821Z" stroke="white" stroke-width="2"/>
<path d="M132.118 31.7502H103.582L103.583 26.3821H130.493C131.001 26.3821 131.486 26.3616 131.908 26.2668C132.352 26.1673 132.797 25.9704 133.142 25.5685C133.472 25.1835 133.617 24.7177 133.691 24.2722C133.764 23.8277 133.782 23.3022 133.782 22.7153C133.782 22.1338 133.764 21.6113 133.691 21.1678C133.617 20.723 133.472 20.2588 133.144 19.8737C132.802 19.4719 132.359 19.2709 131.914 19.1683C131.49 19.0706 131.004 19.0484 130.493 19.0484H103.843V13.7028H120.474H121.474V12.7028V10.0363C121.474 9.44767 121.455 8.92125 121.379 8.47529C121.303 8.02783 121.156 7.56352 120.824 7.18026C120.479 6.7811 120.035 6.5845 119.593 6.48491C119.172 6.39008 118.689 6.36947 118.185 6.36947H103.583V1H119.791C122.06 1 123.682 1.7107 124.755 2.95923C125.85 4.23223 126.501 6.21068 126.501 8.98322V12.7017V13.7017H127.501H132.118C134.387 13.7017 136.003 14.4123 137.072 15.6573C138.162 16.9272 138.808 18.8999 138.808 21.6615V23.7669C138.808 26.5411 138.161 28.5197 137.071 29.7924C136.003 31.0397 134.387 31.7502 132.118 31.7502Z" stroke="white" stroke-width="2"/>
<path d="M150.114 1V31.7512H145.086V1H150.114Z" stroke="white" stroke-width="2"/>
<path d="M159.945 23.768V1H164.973V22.7153C164.973 23.3022 164.991 23.8277 165.065 24.2722C165.138 24.7177 165.283 25.1834 165.613 25.5685C165.958 25.9703 166.403 26.1673 166.847 26.2668C167.269 26.3616 167.754 26.3821 168.262 26.3821H189.385C189.893 26.3821 190.378 26.3616 190.8 26.2668C191.244 26.1673 191.689 25.9703 192.034 25.5685C192.364 25.1834 192.509 24.7177 192.582 24.2722C192.656 23.8277 192.674 23.3022 192.674 22.7153V1H197.702V23.768C197.702 26.5422 197.055 28.5208 195.964 29.7934C194.896 31.0408 193.28 31.7512 191.011 31.7512H166.656C164.387 31.7512 162.765 31.0405 161.691 29.792C160.597 28.519 159.945 26.5405 159.945 23.768Z" stroke="white" stroke-width="2"/>
<path d="M239.967 1L239.967 6.36911H215.367C214.863 6.36911 214.382 6.38979 213.962 6.48332C213.522 6.58126 213.079 6.77434 212.733 7.16814C212.4 7.54795 212.25 8.00865 212.173 8.45202C212.097 8.8929 212.078 9.41178 212.078 9.98902C212.078 10.5665 212.097 11.0863 212.173 11.5287C212.25 11.9733 212.398 12.4343 212.728 12.8159C213.071 13.2125 213.512 13.4114 213.955 13.5133C214.377 13.6105 214.86 13.6328 215.367 13.6328H234.884C237.152 13.6328 238.769 14.3433 239.837 15.5883C240.927 16.8582 241.574 18.8309 241.574 21.5925V23.768C241.574 26.5422 240.927 28.5209 239.837 29.7935C238.768 31.0407 237.152 31.7512 234.884 31.7512H206.93V26.3821H233.277C233.781 26.3821 234.263 26.3616 234.683 26.2664C235.125 26.1662 235.568 25.968 235.911 25.5656C236.239 25.1808 236.382 24.716 236.455 24.2713C236.528 23.8273 236.546 23.3024 236.546 22.7153V22.6452C236.546 22.0582 236.528 21.5332 236.455 21.0892C236.382 20.6445 236.239 20.1798 235.911 19.7949C235.568 19.3925 235.125 19.1943 234.683 19.0941C234.263 18.999 233.781 18.9784 233.277 18.9784H213.761C211.492 18.9784 209.869 18.2676 208.796 17.0214C207.701 15.7511 207.05 13.7786 207.05 11.0186V8.98322C207.05 6.2107 207.702 4.23225 208.796 2.95924C209.87 1.71069 211.492 1 213.761 1H239.967Z" stroke="white" stroke-width="2"/>
</svg>
